<svg
   width="69.556633mm"
   height="8.7257824mm"
   viewBox="0 0 69.556633 8.7257824"
   version="1.1"
   id="svg920">
  <defs
     id="defs917" />
  <g
     id="layer1"
     transform="translate(1.5439878e-5)"
     class="fill-black/75 dark:fill-white/75">
    <path
       d="M 7.525098,8.6069026 H 5.2426064 L 1.5454388,2.1873935 h -0.047563 q 0.023782,0.6062868 0.047563,1.2125735 0.035638,0.6062867 0.05942,1.2125735 V 8.6069026 H -1.5439878e-5 V 0.11888137 H 2.2705854 L 5.9558622,6.478957 h 0.035638 Q 5.9677185,5.896445 5.9439369,5.313933 5.9201553,4.731421 5.9082989,4.1370182 V 0.11888137 h 1.6167647 z"
       id="path1788" />
    <path
       d="M 14.550894,8.6069026 H 9.6649344 V 0.11888137 H 14.550894 V 1.5929907 H 11.46002 v 1.8664166 h 2.876894 V 4.9335166 H 11.46002 v 2.1873858 h 3.090874 z"
       id="path1790" />
    <path
       d="M 26.747967,0.11888137 24.584349,8.6069026 H 22.539618 L 21.386485,4.148909 q -0.03564,-0.1307713 -0.09511,-0.3923072 -0.04756,-0.2615359 -0.118881,-0.5706212 -0.05942,-0.3090853 -0.11888,-0.582512 -0.04756,-0.2734198 -0.05942,-0.4398567 -0.01193,0.1664369 -0.07132,0.4398567 -0.04756,0.2734267 -0.106997,0.582512 -0.05942,0.2972014 -0.11888,0.5706212 -0.05942,0.2615359 -0.0951,0.4041912 L 19.460649,8.6069026 H 17.415911 L 15.2523,0.11888137 h 1.771311 L 18.10542,4.7551958 q 0.07132,0.2734266 0.154539,0.6895017 0.08322,0.416082 0.154546,0.8321571 0.07133,0.4160819 0.10699,0.7013925 0.03564,-0.2971945 0.106997,-0.7013925 0.07132,-0.4160751 0.142655,-0.7964915 0.08321,-0.3923073 0.142655,-0.6062868 L 20.15015,0.11888137 h 1.699987 l 1.236348,4.75519493 q 0.05942,0.2139795 0.130765,0.6062868 0.08321,0.3804164 0.154546,0.7964915 0.07133,0.4160819 0.10699,0.7013925 0.03564,-0.2971945 0.106996,-0.7013925 0.07132,-0.4160751 0.154539,-0.8202663 0.09511,-0.4160819 0.154547,-0.7013925 l 1.081809,-4.63631443 z"
       id="path1792" />
    <path
       d="m 32.822739,6.2530798 q 0,1.1293585 -0.820274,1.8069763 -0.808382,0.6657271 -2.306266,0.6657271 -1.343345,0 -2.401379,-0.511181 V 6.5383904 q 0.606294,0.2615359 1.248239,0.4874131 0.653843,0.2139795 1.295795,0.2139795 0.665727,0 0.939147,-0.249645 0.285311,-0.2615359 0.285311,-0.6538431 0,-0.3209693 -0.225871,-0.5468465 Q 30.623462,5.5635781 30.254929,5.3733733 29.886404,5.1712777 29.410882,4.9454005 29.113687,4.8027452 28.768936,4.6125405 28.424178,4.4104449 28.103209,4.1251343 27.794117,3.8279329 27.592021,3.4118509 27.389926,2.9957758 27.389926,2.4132638 q 0,-1.1412492 0.772717,-1.77131071 Q 28.935366,8.0341448e-7 30.26682,8.0341448e-7 q 0.665727,0 1.260123,0.15454610658552 0.594403,0.15453922 1.26013,0.43985671 L 32.204561,1.9971819 Q 31.622049,1.7594207 31.158418,1.6286563 30.694786,1.4978849 30.20738,1.4978849 q -0.511181,0 -0.784608,0.2377611 -0.273426,0.2377611 -0.273426,0.6181776 0,0.4517406 0.404198,0.7132764 0.404191,0.2615359 1.200682,0.6419523 0.653844,0.3090854 1.105584,0.6419523 0.463632,0.3328601 0.713277,0.7846076 0.249652,0.4517406 0.249652,1.1174676 z"
       id="path1794" />
    <path
       d="M 41.893279,8.6069026 H 39.610787 L 35.913619,2.1873935 h -0.04756 q 0.02378,0.6062868 0.04756,1.2125735 0.03564,0.6062867 0.05942,1.2125735 V 8.6069026 H 34.368165 V 0.11888137 h 2.270601 L 40.324043,6.478957 h 0.03564 Q 40.335899,5.896445 40.312118,5.313933 40.288336,4.731421 40.27648,4.1370182 V 0.11888137 h 1.616764 z"
       id="path1796" />
    <path
       d="M 47.207204,8.6069026 H 43.343606 V 7.5845339 l 1.03426,-0.4755154 V 1.6167654 L 43.343606,1.1412501 V 0.11888137 h 3.863598 V 1.1412501 l -1.034253,0.4755153 v 5.4922531 l 1.034253,0.4755154 z"
       id="path1798" />
    <path
       d="m 51.367996,0.11888137 q 1.640546,0 2.389488,0.71327648 0.760833,0.70139255 0.760833,1.93774075 0,0.748949 -0.309092,1.3908944 -0.309085,0.6419522 -1.034253,1.0342595 -0.713283,0.3923003 -1.949631,0.3923003 H 50.452624 V 8.6069026 H 48.657539 V 0.11888137 Z M 51.27289,1.5929907 h -0.820266 v 2.5202528 h 0.594396 q 0.760833,0 1.20069,-0.2972014 0.45174,-0.3090854 0.45174,-0.9867032 0,-1.2363482 -1.42656,-1.2363482 z"
       id="path1800" />
    <path
       d="m 61.009158,8.6069026 h -4.88596 V 0.11888137 h 4.88596 V 1.5929907 h -3.090874 v 1.8664166 h 2.876887 v 1.4741093 h -2.876887 v 2.1873858 h 3.090874 z"
       id="path1802" />
    <path
       d="m 65.253165,0.11888137 q 1.735645,0 2.555918,0.63006147 0.832157,0.63006146 0.832157,1.91396606 0,0.582512 -0.22587,1.0223687 -0.21398,0.4279659 -0.582512,0.7370512 -0.356635,0.2972014 -0.772717,0.4874131 l 2.496478,3.6971607 H 67.559438 L 65.538475,5.3495917 H 64.575554 V 8.6069026 H 62.780468 V 0.11888137 Z M 65.1224,1.5929907 h -0.546846 v 2.2943825 h 0.582512 q 0.891597,0 1.272013,-0.2972014 0.392301,-0.2972014 0.392301,-0.8797066 0,-0.6062936 -0.416075,-0.8559386 Q 65.990223,1.5929907 65.1224,1.5929907 Z"
       id="path1804" />
  </g>
</svg>
