<svg width="366.599mm" height="84.2832mm" version="1.1" viewBox="0 0 366.599 84.2832" xmlns="http://www.w3.org/2000/svg">
    <g transform="matrix(4.34961 0 0 4.34961 32.0276 23.1647)">
        <path d="m7.5251 8.6069h-2.28249l-3.69717-6.41951h-0.047563q0.023782 0.606287 0.047563 1.21257 0.035638 0.606287 0.05942 1.21257v3.99436h-1.60487v-8.48802h2.2706l3.68528 6.36008h0.035638q-0.0237817-0.582512-0.0475633-1.16502t-0.035638-1.17691v-4.01814h1.61676z"/>
        <path d="m14.5509 8.6069h-4.88596v-8.48802h4.88596v1.47411h-3.09087v1.86642h2.87689v1.47411h-2.87689v2.18739h3.09087z"/>
        <path d="m26.748 0.118881-2.16362 8.48802h-2.04473l-1.15313-4.45799q-0.03564-0.130771-0.09511-0.392307-0.04756-0.261536-0.118881-0.570621-0.05942-0.309085-0.11888-0.582512-0.04756-0.27342-0.05942-0.439857-0.01193 0.166437-0.07132 0.439857-0.04756 0.273427-0.106997 0.582512-0.05942 0.297201-0.11888 0.570621-0.05942 0.261536-0.0951 0.404191l-1.14125 4.44611h-2.04474l-2.16361-8.48802h1.77131l1.08181 4.63631q0.07132 0.273427 0.154539 0.689502 0.08322 0.416082 0.154546 0.832157 0.07133 0.416082 0.10699 0.701392 0.03564-0.297194 0.106997-0.701392 0.07132-0.416075 0.142655-0.796492 0.08321-0.392307 0.142655-0.606287l1.23635-4.75519h1.69999l1.23635 4.75519q0.05942 0.21398 0.130765 0.606287 0.08321 0.380416 0.154546 0.796492 0.07133 0.416082 0.10699 0.701392 0.03564-0.297194 0.106996-0.701392 0.07132-0.416075 0.154539-0.820266 0.09511-0.416082 0.154547-0.701392l1.08181-4.63631z"/>
        <path d="m32.8227 6.25308q0 1.12936-0.820274 1.80698-0.808382 0.665727-2.30627 0.665727-1.34334 0-2.40138-0.511181v-1.67621q0.606294 0.261536 1.24824 0.487413 0.653843 0.21398 1.2958 0.21398 0.665727 0 0.939147-0.249645 0.285311-0.261536 0.285311-0.653843 0-0.320969-0.225871-0.546846-0.213979-0.22587-0.582512-0.416075-0.368525-0.202096-0.844047-0.427973-0.297195-0.142655-0.641946-0.33286-0.344758-0.202096-0.665727-0.487406-0.309092-0.297201-0.511188-0.713283-0.202095-0.416075-0.202095-0.998587 0-1.14125 0.772717-1.77131 0.772723-0.641952 2.10418-0.641952 0.665727 0 1.26012 0.154546 0.594403 0.154539 1.26013 0.439857l-0.582512 1.40278q-0.582512-0.237761-1.04614-0.368526-0.463632-0.130771-0.951038-0.130771-0.511181 0-0.784608 0.237761-0.273426 0.237761-0.273426 0.618178 0 0.451741 0.404198 0.713276 0.404191 0.261536 1.20068 0.641952 0.653844 0.309085 1.10558 0.641952 0.463632 0.33286 0.713277 0.784608 0.249652 0.451741 0.249652 1.11747z"/>
        <path d="m41.8933 8.6069h-2.28249l-3.69717-6.41951h-0.04756q0.02378 0.606287 0.04756 1.21257 0.03564 0.606287 0.05942 1.21257v3.99436h-1.60487v-8.48802h2.2706l3.68528 6.36008h0.03564q-0.023784-0.582512-0.047565-1.16502-0.023782-0.582512-0.035638-1.17691v-4.01814h1.61676z"/>
        <path d="m47.2072 8.6069h-3.8636v-1.02237l1.03426-0.475515v-5.49225l-1.03426-0.475515v-1.02237h3.8636v1.02237l-1.03425 0.475515v5.49225l1.03425 0.475515z"/>
        <path d="m51.368 0.118881q1.64055 0 2.38949 0.713276 0.760833 0.701393 0.760833 1.93774 0 0.748949-0.309092 1.39089-0.309085 0.641952-1.03425 1.03426-0.713283 0.3923-1.94963 0.3923h-0.772717v3.01955h-1.79508v-8.48802zm-0.09511 1.47411h-0.820266v2.52025h0.594396q0.760833 0 1.20069-0.297201 0.45174-0.309085 0.45174-0.986703 0-1.23635-1.42656-1.23635z"/>
        <path d="m61.0092 8.6069h-4.88596v-8.48802h4.88596v1.47411h-3.09087v1.86642h2.87689v1.47411h-2.87689v2.18739h3.09087z"/>
        <path d="m65.2532 0.118881q1.73564 0 2.55592 0.630061 0.832157 0.630061 0.832157 1.91397 0 0.582512-0.22587 1.02237-0.21398 0.427966-0.582512 0.737051-0.356635 0.297201-0.772717 0.487413l2.49648 3.69716h-1.99718l-2.02096-3.25731h-0.962921v3.25731h-1.79509v-8.48802zm-0.130765 1.47411h-0.546846v2.29438h0.582512q0.891597 0 1.27201-0.297201 0.392301-0.297201 0.392301-0.879707 0-0.606294-0.416075-0.855939-0.416082-0.261536-1.2839-0.261536z"/>
    </g>
</svg>
