<?xml version="1.0" encoding="UTF-8" standalone="no"?>
<svg
   width="366.59909mm"
   height="84.283195mm"
   version="1.1"
   viewBox="0 0 366.59908 84.2832"
   id="svg22"
   sodipodi:docname="site_logo_wide.svg"
   inkscape:version="1.2.2 (732a01da63, 2022-12-09)"
   xmlns:inkscape="http://www.inkscape.org/namespaces/inkscape"
   xmlns:sodipodi="http://sodipodi.sourceforge.net/DTD/sodipodi-0.dtd"
   xmlns="http://www.w3.org/2000/svg"
   xmlns:svg="http://www.w3.org/2000/svg">
  <defs
     id="defs26" />
  <sodipodi:namedview
     id="namedview24"
     pagecolor="#ffffff"
     bordercolor="#000000"
     borderopacity="0.25"
     inkscape:showpageshadow="2"
     inkscape:pageopacity="0.0"
     inkscape:pagecheckerboard="0"
     inkscape:deskcolor="#d1d1d1"
     inkscape:document-units="mm"
     showgrid="false"
     inkscape:zoom="1.3085267"
     inkscape:cx="553.67615"
     inkscape:cy="166.21748"
     inkscape:window-width="2560"
     inkscape:window-height="1351"
     inkscape:window-x="-9"
     inkscape:window-y="-9"
     inkscape:window-maximized="1"
     inkscape:current-layer="svg22" />
  <rect
     style="fill:#ffffff;fill-opacity:1;stroke:none;stroke-width:7.54884;stroke-linejoin:round"
     id="rect1437"
     width="84.283195"
     height="366.59909"
     x="0"
     y="-366.59909"
     transform="rotate(90)" />
  <g
     transform="matrix(4.3496109,0,0,4.3496109,32.027564,23.164719)"
     id="g20">
    <path
       d="M 7.5251,8.6069 H 5.24261 L 1.54544,2.18739 H 1.497877 Q 1.521659,2.793677 1.54544,3.39996 1.581078,4.006247 1.60486,4.61253 V 8.60689 H -1e-5 V 0.11887 h 2.2706 L 5.95587,6.47895 H 5.991508 Q 5.9677263,5.896438 5.9439447,5.31393 5.9201631,4.731422 5.9083067,4.13702 V 0.11888 h 1.61676 z"
       id="path2" />
    <path
       d="M 14.5509,8.6069 H 9.66494 V 0.11888 h 4.88596 v 1.47411 h -3.09087 v 1.86642 h 2.87689 v 1.47411 h -2.87689 v 2.18739 h 3.09087 z"
       id="path4" />
    <path
       d="m 26.748,0.118881 -2.16362,8.48802 H 22.53965 L 21.38652,4.148911 Q 21.35088,4.01814 21.29141,3.756604 21.24385,3.495068 21.172529,3.185983 q -0.05942,-0.309085 -0.11888,-0.582512 -0.04756,-0.27342 -0.05942,-0.439857 -0.01193,0.166437 -0.07132,0.439857 -0.04756,0.273427 -0.106997,0.582512 -0.05942,0.297201 -0.11888,0.570621 -0.05942,0.261536 -0.0951,0.404191 l -1.14125,4.44611 h -2.04474 l -2.16361,-8.48802 h 1.77131 l 1.08181,4.63631 q 0.07132,0.273427 0.154539,0.689502 0.08322,0.416082 0.154546,0.832157 0.07133,0.416082 0.10699,0.701392 0.03564,-0.297194 0.106997,-0.701392 0.07132,-0.416075 0.142655,-0.796492 0.08321,-0.392307 0.142655,-0.606287 l 1.23635,-4.75519 h 1.69999 l 1.23635,4.75519 q 0.05942,0.21398 0.130765,0.606287 0.08321,0.380416 0.154546,0.796492 0.07133,0.416082 0.10699,0.701392 0.03564,-0.297194 0.106996,-0.701392 0.07132,-0.416075 0.154539,-0.820266 0.09511,-0.416082 0.154547,-0.701392 l 1.08181,-4.63631 z"
       id="path6" />
    <path
       d="m 32.8227,6.25308 q 0,1.12936 -0.820274,1.80698 -0.808382,0.665727 -2.30627,0.665727 -1.34334,0 -2.40138,-0.511181 v -1.67621 q 0.606294,0.261536 1.24824,0.487413 0.653843,0.21398 1.2958,0.21398 0.665727,0 0.939147,-0.249645 0.285311,-0.261536 0.285311,-0.653843 0,-0.320969 -0.225871,-0.546846 Q 30.623424,5.563585 30.254891,5.37338 29.886366,5.171284 29.410844,4.945407 29.113649,4.802752 28.768898,4.612547 28.42414,4.410451 28.103171,4.125141 27.794079,3.82794 27.591983,3.411858 27.389888,2.995783 27.389888,2.413271 q 0,-1.14125 0.772717,-1.77131 Q 28.935328,9e-6 30.266785,9e-6 q 0.665727,0 1.26012,0.154546 0.594403,0.154539 1.26013,0.439857 l -0.582512,1.40278 Q 31.622011,1.759431 31.158383,1.628666 30.694751,1.497895 30.207345,1.497895 q -0.511181,0 -0.784608,0.237761 -0.273426,0.237761 -0.273426,0.618178 0,0.451741 0.404198,0.713276 0.404191,0.261536 1.20068,0.641952 0.653844,0.309085 1.10558,0.641952 0.463632,0.33286 0.713277,0.784608 0.249652,0.451741 0.249652,1.11747 z"
       id="path8" />
    <path
       d="M 41.8933,8.6069 H 39.61081 L 35.91364,2.18739 h -0.04756 q 0.02378,0.606287 0.04756,1.21257 0.03564,0.606287 0.05942,1.21257 V 8.60689 H 34.36819 V 0.11887 h 2.2706 l 3.68528,6.36008 h 0.03564 Q 40.335926,5.896438 40.312145,5.31393 40.288363,4.731418 40.276507,4.13702 V 0.11888 h 1.61676 z"
       id="path10" />
    <path
       d="M 47.2072,8.6069 H 43.3436 V 7.58453 L 44.37786,7.109015 V 1.616765 L 43.3436,1.14125 V 0.11888 h 3.8636 v 1.02237 l -1.03425,0.475515 v 5.49225 L 47.2072,7.58453 Z"
       id="path12" />
    <path
       d="m 51.368,0.118881 q 1.64055,0 2.38949,0.713276 0.760833,0.701393 0.760833,1.93774 0,0.748949 -0.309092,1.39089 -0.309085,0.641952 -1.03425,1.03426 -0.713283,0.3923 -1.94963,0.3923 h -0.772717 v 3.01955 h -1.79508 v -8.48802 z m -0.09511,1.47411 h -0.820266 v 2.52025 h 0.594396 q 0.760833,0 1.20069,-0.297201 0.45174,-0.309085 0.45174,-0.986703 0,-1.23635 -1.42656,-1.23635 z"
       id="path14" />
    <path
       d="M 61.0092,8.6069 H 56.12324 V 0.11888 h 4.88596 v 1.47411 h -3.09087 v 1.86642 h 2.87689 v 1.47411 h -2.87689 v 2.18739 h 3.09087 z"
       id="path16" />
    <path
       d="m 65.2532,0.118881 q 1.73564,0 2.55592,0.630061 0.832157,0.630061 0.832157,1.91397 0,0.582512 -0.22587,1.02237 -0.21398,0.427966 -0.582512,0.737051 -0.356635,0.297201 -0.772717,0.487413 l 2.49648,3.69716 h -1.99718 l -2.02096,-3.25731 h -0.962921 v 3.25731 h -1.79509 v -8.48802 z m -0.130765,1.47411 h -0.546846 v 2.29438 h 0.582512 q 0.891597,0 1.27201,-0.297201 0.392301,-0.297201 0.392301,-0.879707 0,-0.606294 -0.416075,-0.855939 -0.416082,-0.261536 -1.2839,-0.261536 z"
       id="path18" />
  </g>
</svg>
